<svg width="28" height="28" viewBox="0 0 28 28" fill="none" xmlns="http://www.w3.org/2000/svg">
<path d="M23.3333 14V8.16669H25.6667V15.1667H23.3333M23.3333 19.8334H25.6667V17.5H23.3333M11.6667 15.1667C14.7817 15.1667 21 16.73 21 19.8334V23.3334H2.33334V19.8334C2.33334 16.73 8.55168 15.1667 11.6667 15.1667ZM11.6667 4.66669C12.9044 4.66669 14.0913 5.15835 14.9665 6.03352C15.8417 6.90869 16.3333 8.09568 16.3333 9.33335C16.3333 10.571 15.8417 11.758 14.9665 12.6332C14.0913 13.5084 12.9044 14 11.6667 14C10.429 14 9.24202 13.5084 8.36685 12.6332C7.49168 11.758 7.00001 10.571 7.00001 9.33335C7.00001 8.09568 7.49168 6.90869 8.36685 6.03352C9.24202 5.15835 10.429 4.66669 11.6667 4.66669ZM11.6667 17.3834C8.20168 17.3834 4.55001 19.0867 4.55001 19.8334V21.1167H18.7833V19.8334C18.7833 19.0867 15.1317 17.3834 11.6667 17.3834ZM11.6667 6.88335C11.0169 6.88335 10.3937 7.14148 9.93427 7.60094C9.4748 8.06041 9.21668 8.68357 9.21668 9.33335C9.21668 9.98313 9.4748 10.6063 9.93427 11.0658C10.3937 11.5252 11.0169 11.7834 11.6667 11.7834C12.3165 11.7834 12.9396 11.5252 13.3991 11.0658C13.8586 10.6063 14.1167 9.98313 14.1167 9.33335C14.1167 8.68357 13.8586 8.06041 13.3991 7.60094C12.9396 7.14148 12.3165 6.88335 11.6667 6.88335Z" fill="black"/>
</svg>
